# xmcd
#
# Track frame offsets:
#	150
#	16009
#	30348
#	42651
#	61435
#	79313
#	94960
#	109655
#	130073
#	132871
#	148543
#	164454
#	181429
#	194810
#	211366
#
# Disc length: 3000 seconds
#
# Revision: 0
# Processed by: cddbd v1.5.2PL0 Copyright (c) Steve Scherf et al.
# Submitted via: SynApp - FreeCDDB Version: 2.5
#
DISCID=d70bb60f
DTITLE=DION - Son Of Skip James
DYEAR=2007
DGENRE=Blues
TTITLE0=Nadine
TTITLE1=My Babe
TTITLE2=Hoodoo Man Blues
TTITLE3=Drop Down Mama
TTITLE4=Hoochie Coochie Man
TTITLE5=Baby I'm In The Mood
TTITLE6=I'm A Guitar King
TTITLE7=The Thunderer
TTITLE8=Interlude (Dylan Story)
TTITLE9=Son Of Skip James
TTITLE10=Preachin' Blues
TTITLE11=If I Had Possession Over Judgement Day
TTITLE12=Devil Got My Woman
TTITLE13=I Just Want To Make Love To You
TTITLE14=Dust My Broom
EXTD=
EXTT0=
EXTT1=
EXTT2=
EXTT3=
EXTT4=
EXTT5=
EXTT6=
EXTT7=
EXTT8=
EXTT9=
EXTT10=
EXTT11=
EXTT12=
EXTT13=
EXTT14=
PLAYORDER=
